<?xml version="1.0" encoding="UTF-8" standalone="no"?>
<!-- Generator: Adobe Illustrator 15.1.0, SVG Export Plug-In . SVG Version: 6.00 Build 0)  -->

<svg
   xmlns:dc="http://purl.org/dc/elements/1.1/"
   xmlns:cc="http://creativecommons.org/ns#"
   xmlns:rdf="http://www.w3.org/1999/02/22-rdf-syntax-ns#"
   xmlns:svg="http://www.w3.org/2000/svg"
   xmlns="http://www.w3.org/2000/svg"
   xmlns:sodipodi="http://sodipodi.sourceforge.net/DTD/sodipodi-0.dtd"
   xmlns:inkscape="http://www.inkscape.org/namespaces/inkscape"
   version="1.1"
   id="Layer_1"
   x="0px"
   y="0px"
   width="220"
   height="46"
   viewBox="0 0 220 46"
   enable-background="new 0 0 686 486"
   xml:space="preserve"
   inkscape:version="0.91 r13725"
   sodipodi:docname="logo.svg"><metadata
     id="metadata3704"><rdf:RDF><cc:Work
         rdf:about=""><dc:format>image/svg+xml</dc:format><dc:type
           rdf:resource="http://purl.org/dc/dcmitype/StillImage" /><dc:title></dc:title></cc:Work></rdf:RDF></metadata><defs
     id="defs3702" /><sodipodi:namedview
     pagecolor="#ffffff"
     bordercolor="#666666"
     borderopacity="1"
     objecttolerance="10"
     gridtolerance="10"
     guidetolerance="10"
     inkscape:pageopacity="0"
     inkscape:pageshadow="2"
     inkscape:window-width="1871"
     inkscape:window-height="1056"
     id="namedview3700"
     showgrid="false"
     inkscape:zoom="1.4142136"
     inkscape:cx="279.09229"
     inkscape:cy="154.63967"
     inkscape:window-x="49"
     inkscape:window-y="24"
     inkscape:window-maximized="1"
     inkscape:current-layer="Layer_1"
     inkscape:showpageshadow="false" /><g
     id="g3608"
     transform="translate(-220.81367,-429.02878)"><g
       id="g3610"><path
         d="m 178.112,235.938 c 15.039,0 23.853,6.791 23.853,21.992 0,15.201 -8.813,21.994 -23.853,21.994 l -18.921,0 0,8.893 c 0,2.021 -1.617,3.721 -3.719,3.721 l -7.439,0 c -2.021,0 -3.719,-1.699 -3.719,-3.721 l 0,-49.16 c 0,-2.102 1.617,-3.719 3.639,-3.719 l 30.159,0 z m -18.921,11.158 0,21.67 14.393,0 c 7.763,0 13.504,-1.617 13.504,-10.836 0,-9.217 -5.741,-10.834 -13.504,-10.834 l -14.393,0 z"
         id="path3612"
         inkscape:connector-curvature="0" /><path
         d="m 262.201,239.656 0,3.719 c 0,2.104 -1.697,3.721 -3.719,3.721 l -34.363,0 0,11.48 29.593,0 c 2.021,0 3.72,1.699 3.72,3.721 l 0,3.719 c 0,2.021 -1.698,3.719 -3.72,3.719 l -29.593,0 0,11.645 34.283,0 c 2.021,0 3.638,1.617 3.638,3.639 l 0,3.799 c 0,2.021 -1.617,3.721 -3.72,3.721 l -45.359,0 c -2.104,0 -3.72,-1.699 -3.72,-3.801 l 0,-49.16 c 0,-2.021 1.698,-3.639 3.72,-3.639 l 45.521,0 c 2.022,-0.001 3.719,1.616 3.719,3.717 z"
         id="path3614"
         inkscape:connector-curvature="0" /><path
         d="m 284.356,271.838 0,16.979 c 0,2.021 -1.617,3.721 -3.72,3.721 l -7.438,0 c -2.021,0 -3.72,-1.699 -3.72,-3.721 l 0,-49.16 c 0,-2.102 1.617,-3.719 3.639,-3.719 l 32.586,0 c 11.805,0 20.617,6.791 20.617,17.949 0,8.732 -6.711,12.775 -14.877,14.393 3.314,1.213 5.74,4.043 8.975,9.137 l 7.196,11.4 c 1.294,2.104 0.728,3.721 -1.374,3.721 l -9.461,0 c -2.021,0 -4.77,-1.617 -6.064,-3.721 l -6.711,-10.51 c -2.021,-3.154 -4.932,-6.469 -10.025,-6.469 l -9.623,0 z m 0,-24.742 0,13.584 16.817,0 c 4.529,0 10.27,-1.617 10.27,-6.793 0,-5.174 -5.74,-6.791 -10.27,-6.791 l -16.817,0 z"
         id="path3616"
         inkscape:connector-curvature="0" /><path
         d="m 368.123,292.537 c -2.021,0 -4.124,-1.617 -4.852,-3.559 l -13.907,-38.811 0,38.568 c 0,2.102 -1.617,3.801 -3.719,3.801 l -7.116,0 c -2.102,0 -3.719,-1.699 -3.719,-3.801 l 0,-48.998 c 0,-2.104 1.617,-3.801 3.639,-3.801 l 16.09,0 c 2.103,0 4.124,1.697 4.771,3.719 l 11.644,33.717 11.644,-33.717 c 0.646,-2.021 2.668,-3.719 4.771,-3.719 l 16.09,0 c 2.021,0 3.639,1.697 3.639,3.801 l 0,48.998 c 0,2.102 -1.617,3.801 -3.719,3.801 l -7.116,0 c -2.102,0 -3.719,-1.699 -3.719,-3.801 l 0,-38.568 -13.907,38.811 c -0.728,1.941 -2.83,3.559 -4.852,3.559 l -5.662,0 z"
         id="path3618"
         inkscape:connector-curvature="0" /><path
         d="m 423.671,251.301 c 3.314,-12.533 14.716,-15.363 26.197,-15.363 l 21.265,0 c 1.94,0 3.396,1.697 3.396,3.639 l 0,49.322 c 0,2.021 -1.698,3.639 -3.72,3.639 l -7.438,0 c -2.103,0 -3.72,-1.617 -3.72,-3.721 l 0,-9.945 -28.057,0 -2.669,9.945 c -0.565,2.104 -2.587,3.721 -4.689,3.721 l -7.762,0 c -2.103,0 -3.315,-1.617 -2.749,-3.639 l 9.946,-37.598 z m 10.834,16.412 25.146,0 0,-20.617 -11.239,0 c -5.094,0 -9.137,3.072 -10.43,7.924 l -3.477,12.693 z"
         id="path3620"
         inkscape:connector-curvature="0" /><path
         d="m 511.885,235.613 8.813,0 c 10.997,0 22.721,5.902 22.721,17.385 0,3.639 -2.991,4.365 -4.043,4.365 l -4.689,0 c -2.264,0 -4.124,-1.051 -5.66,-4.365 -1.778,-3.801 -4.852,-6.227 -9.702,-6.227 l -7.035,0 c -11.643,0 -14.796,4.285 -14.796,17.465 0,13.18 3.153,17.465 14.796,17.465 l 7.844,0 c 4.851,0 7.924,-2.426 9.702,-6.225 1.536,-3.316 3.396,-4.367 5.66,-4.367 l 4.689,0 c 1.052,0 4.043,0.729 4.043,4.367 0,11.48 -11.724,17.383 -22.721,17.383 l -9.622,0 c -19.324,0 -29.27,-8.975 -29.27,-28.623 0,-19.648 9.946,-28.623 29.27,-28.623 z"
         id="path3622"
         inkscape:connector-curvature="0" /></g></g><path
     d="m 55.288323,-311.26178 c 67.522997,-23.373 152.358997,31.166 -3.008,97.779 147.574997,-41.51 177.874997,-171.361 3.008,-97.779 z"
     id="path3682"
     inkscape:connector-curvature="0" /><path
     d="m 179.37732,-292.75778 c 15.894,-28.777 12.143,-49.868 8.203,-58.002 -12.048,-24.868 -37.394,-0.757 -15.806,18.234 12.835,11.29 10.109,26.602 7.603,39.768 z"
     id="path3684"
     inkscape:connector-curvature="0"
     style="fill:#ed1c24" /><path
     d="m 184.08432,-292.75778 c 14.26,-18.457 38.307,-31.646 51.292,-29.698 15.582,2.922 3.57,15.907 -9.739,16.881 -13.309,0.974 -23.049,5.026 -41.553,12.817 z"
     id="path3686"
     inkscape:connector-curvature="0"
     style="fill:#d1d3d4" /><text
     xml:space="preserve"
     style="font-style:normal;font-weight:normal;font-size:40px;line-height:125%;font-family:sans-serif;letter-spacing:0.56999999px;word-spacing:0px;fill:#000000;fill-opacity:1;stroke:none;stroke-width:1px;stroke-linecap:butt;stroke-linejoin:miter;stroke-opacity:1"
     x="-76.362335"
     y="-100.57282"
     id="text3706"
     sodipodi:linespacing="125%"><tspan
       sodipodi:role="line"
       id="tspan3708"
       x="-76.362335"
       y="-100.57282"
       style="font-style:normal;font-variant:normal;font-weight:300;font-stretch:normal;font-size:25px;font-family:'Yanone Kaffeesatz';-inkscape-font-specification:'Yanone Kaffeesatz Light';letter-spacing:5px">Peinture et travaux d'intérieur</tspan></text>
<g
     id="g3568"
     transform="matrix(0.84444444,0,0,0.84444444,5.3331717,4.9254386)"><path
       d="M 2.2838633,14.15335 C 22.828755,7.0417621 48.641388,23.636076 1.3686343,43.904086 46.270554,31.274043 55.489788,-8.2350839 2.2838633,14.15335 Z"
       id="path3562"
       inkscape:connector-curvature="0" /><path
       d="M 40.039814,19.783471 C 44.875803,11.027635 43.734505,4.6103801 42.5357,2.1354871 c -3.665786,-7.566464 -11.377689,-0.230328 -4.809214,5.54797 3.905243,3.4351529 3.075816,8.0940599 2.313328,12.1000139 z"
       id="path3564"
       inkscape:connector-curvature="0"
       style="fill:#ed1c24" /><path
       d="m 41.471989,19.783471 c 4.338821,-5.61582 11.655483,-9.628773 15.606367,-9.036064 4.741058,0.889062 1.086226,4.839944 -2.963238,5.136299 -4.049465,0.296354 -7.013007,1.529236 -12.643129,3.899765 z"
       id="path3566"
       inkscape:connector-curvature="0"
       style="fill:#d1d3d4" /></g><g
     id="g3605"
     transform="translate(8.4889036,-2.5226874)"><g
       id="g3573"
       transform="matrix(0.37508064,0,0,0.37508064,0.8928025,-79.845433)"><g
         id="g3575"><path
           d="m 178.112,235.938 c 15.039,0 23.853,6.791 23.853,21.992 0,15.201 -8.813,21.994 -23.853,21.994 l -18.921,0 0,8.893 c 0,2.021 -1.617,3.721 -3.719,3.721 l -7.439,0 c -2.021,0 -3.719,-1.699 -3.719,-3.721 l 0,-49.16 c 0,-2.102 1.617,-3.719 3.639,-3.719 l 30.159,0 z m -18.921,11.158 0,21.67 14.393,0 c 7.763,0 13.504,-1.617 13.504,-10.836 0,-9.217 -5.741,-10.834 -13.504,-10.834 l -14.393,0 z"
           id="path3577"
           inkscape:connector-curvature="0" /><path
           d="m 262.201,239.656 0,3.719 c 0,2.104 -1.697,3.721 -3.719,3.721 l -34.363,0 0,11.48 29.593,0 c 2.021,0 3.72,1.699 3.72,3.721 l 0,3.719 c 0,2.021 -1.698,3.719 -3.72,3.719 l -29.593,0 0,11.645 34.283,0 c 2.021,0 3.638,1.617 3.638,3.639 l 0,3.799 c 0,2.021 -1.617,3.721 -3.72,3.721 l -45.359,0 c -2.104,0 -3.72,-1.699 -3.72,-3.801 l 0,-49.16 c 0,-2.021 1.698,-3.639 3.72,-3.639 l 45.521,0 c 2.022,-0.001 3.719,1.616 3.719,3.717 z"
           id="path3579"
           inkscape:connector-curvature="0" /><path
           d="m 284.356,271.838 0,16.979 c 0,2.021 -1.617,3.721 -3.72,3.721 l -7.438,0 c -2.021,0 -3.72,-1.699 -3.72,-3.721 l 0,-49.16 c 0,-2.102 1.617,-3.719 3.639,-3.719 l 32.586,0 c 11.805,0 20.617,6.791 20.617,17.949 0,8.732 -6.711,12.775 -14.877,14.393 3.314,1.213 5.74,4.043 8.975,9.137 l 7.196,11.4 c 1.294,2.104 0.728,3.721 -1.374,3.721 l -9.461,0 c -2.021,0 -4.77,-1.617 -6.064,-3.721 l -6.711,-10.51 c -2.021,-3.154 -4.932,-6.469 -10.025,-6.469 l -9.623,0 z m 0,-24.742 0,13.584 16.817,0 c 4.529,0 10.27,-1.617 10.27,-6.793 0,-5.174 -5.74,-6.791 -10.27,-6.791 l -16.817,0 z"
           id="path3581"
           inkscape:connector-curvature="0" /><path
           d="m 368.123,292.537 c -2.021,0 -4.124,-1.617 -4.852,-3.559 l -13.907,-38.811 0,38.568 c 0,2.102 -1.617,3.801 -3.719,3.801 l -7.116,0 c -2.102,0 -3.719,-1.699 -3.719,-3.801 l 0,-48.998 c 0,-2.104 1.617,-3.801 3.639,-3.801 l 16.09,0 c 2.103,0 4.124,1.697 4.771,3.719 l 11.644,33.717 11.644,-33.717 c 0.646,-2.021 2.668,-3.719 4.771,-3.719 l 16.09,0 c 2.021,0 3.639,1.697 3.639,3.801 l 0,48.998 c 0,2.102 -1.617,3.801 -3.719,3.801 l -7.116,0 c -2.102,0 -3.719,-1.699 -3.719,-3.801 l 0,-38.568 -13.907,38.811 c -0.728,1.941 -2.83,3.559 -4.852,3.559 l -5.662,0 z"
           id="path3583"
           inkscape:connector-curvature="0" /><path
           d="m 423.671,251.301 c 3.314,-12.533 14.716,-15.363 26.197,-15.363 l 21.265,0 c 1.94,0 3.396,1.697 3.396,3.639 l 0,49.322 c 0,2.021 -1.698,3.639 -3.72,3.639 l -7.438,0 c -2.103,0 -3.72,-1.617 -3.72,-3.721 l 0,-9.945 -28.057,0 -2.669,9.945 c -0.565,2.104 -2.587,3.721 -4.689,3.721 l -7.762,0 c -2.103,0 -3.315,-1.617 -2.749,-3.639 l 9.946,-37.598 z m 10.834,16.412 25.146,0 0,-20.617 -11.239,0 c -5.094,0 -9.137,3.072 -10.43,7.924 l -3.477,12.693 z"
           id="path3585"
           inkscape:connector-curvature="0" /><path
           d="m 511.885,235.613 8.813,0 c 10.997,0 22.721,5.902 22.721,17.385 0,3.639 -2.991,4.365 -4.043,4.365 l -4.689,0 c -2.264,0 -4.124,-1.051 -5.66,-4.365 -1.778,-3.801 -4.852,-6.227 -9.702,-6.227 l -7.035,0 c -11.643,0 -14.796,4.285 -14.796,17.465 0,13.18 3.153,17.465 14.796,17.465 l 7.844,0 c 4.851,0 7.924,-2.426 9.702,-6.225 1.536,-3.316 3.396,-4.367 5.66,-4.367 l 4.689,0 c 1.052,0 4.043,0.729 4.043,4.367 0,11.48 -11.724,17.383 -22.721,17.383 l -9.622,0 c -19.324,0 -29.27,-8.975 -29.27,-28.623 0,-19.648 9.946,-28.623 29.27,-28.623 z"
           id="path3587"
           inkscape:connector-curvature="0" /></g></g><text
       xml:space="preserve"
       style="font-style:normal;font-weight:normal;font-size:15.31124878px;line-height:125%;font-family:sans-serif;letter-spacing:0.21818529px;word-spacing:0px;fill:#000000;fill-opacity:1;stroke:none;stroke-width:1px;stroke-linecap:butt;stroke-linejoin:miter;stroke-opacity:1"
       x="54.457588"
       y="42.419636"
       id="text3589"
       sodipodi:linespacing="125%"><tspan
         sodipodi:role="line"
         id="tspan3591"
         x="54.457588"
         y="42.419636"
         style="font-style:normal;font-variant:normal;font-weight:300;font-stretch:normal;font-size:9.56953049px;font-family:'Yanone Kaffeesatz';-inkscape-font-specification:'Yanone Kaffeesatz Light';letter-spacing:1.9139061px">Peinture et travaux d'intérieur</tspan></text>
</g></svg>